<?xml version="1.0" encoding="utf-8"?>
<svg version="1.1" id="Layer_1"
xmlns="http://www.w3.org/2000/svg"
xmlns:xlink="http://www.w3.org/1999/xlink"
width="550px" height="400px"
xml:space="preserve">
<filter id="filter6" x="-0.521857" y="-0.521857" width="2.24296" height="2.22371" >
<feComponentTransfer in="SourceGraphic">
	<feFuncR type="linear" slope="0"/>
	<feFuncG type="linear" slope="0"/>
	<feFuncB type="linear" slope="0"/>
</feComponentTransfer>
<feGaussianBlur stdDeviation="0.6 0.6" />
<feOffset dx="2.8284" dy="-2.82845"/>
<feComponentTransfer result="4">
	<feFuncR type="linear" Ue="0" intercept="0"/>
	<feFuncG type="linear" Ue="0" intercept="0"/>
	<feFuncB type="linear" Ue="0" intercept="0"/>
	<feFuncA type="linear" xh="0" slope="2"/>
</feComponentTransfer>
<feComposite result="5"  in="4" in2="SourceGraphic" operator="out"/>
</filter>
<g style="filter:url(#filter6);">
<g id="PathID_19" transform="matrix(-1.32551, -1.1588e-007, 0, 1.32551, 248.1, 180.9)" opacity="1">
<path style="fill:#020202;fill-opacity:1" d="M-35.85 -35.75Q-50.6 -20.9 -50.6 0Q-50.6 20.9 -35.75 35.75Q-20.95 50.55 -0.05 50.55Q20.85 50.55 35.7 35.75Q50.5 20.9 50.5 0Q50.5 -20.9 35.7 -35.75Q20.85 -50.55 -0.05 -50.55Q-20.95 -50.55 -35.75 -35.8L-35.85 -35.75M-0.05 -55.45Q22.95 -55.45 39.2 -39.25Q55.45 -23 55.45 0Q55.45 22.95 39.2 39.15L39.15 39.25Q22.9 55.45 -0.05 55.45Q-23.05 55.45 -39.3 39.25Q-55.5 23 -55.5 0Q-55.5 -22.95 -39.3 -39.25Q-23 -55.45 -0.05 -55.45" />
</g>
<g id="PathID_20" transform="matrix(-1.32551, -1.1588e-007, 0, 1.32551, 248.1, 180.9)" opacity="1">
</g>
</g>
<g id="PathID_21" transform="matrix(1.07042, 0, 0, 1.07042, -64.5, -24.15)" opacity="1">
<path style="fill:#FFFFFF;fill-opacity:1" d="M235.1 124.5L235.1 277.55L234.95 277.55L234.95 124.5L235.1 124.5" />
</g>
<g id="PathID_22" transform="matrix(1.07042, 0, 0, 1.07042, -64.5, -24.15)" opacity="1">
</g>
<g id="PathID_23" transform="matrix(0.832063, 0, 0, 0.832063, 183.9, 193.15)" opacity="1">
<linearGradient
id="LinearGradID_3" gradientUnits="userSpaceOnUse" gradientTransform="matrix(-1.92518e-009, 0.044043, -0.0231771, -1.0131e-009, 38.45, -18.3)" spreadMethod ="pad" x1="-819.2" y1="0" x2="819.2" y2="0" >
<stop  offset="0" style="stop-color:#FFFFFF;stop-opacity:1" />
<stop  offset="0.498039" style="stop-color:#534741;stop-opacity:1" />
<stop  offset="0.501961" style="stop-color:#21150F;stop-opacity:1" />
<stop  offset="1" style="stop-color:#534741;stop-opacity:1" />
</linearGradient>
<path style="fill:url(#LinearGradID_3) " d="M27.15 -13.5L34.35 -11.25Q32.7 -5.2 28.85 -2.25Q25 0.65 19.1 0.65Q11.8 0.65 7.1 -4.3Q2.45 -9.3 2.45 -17.95Q2.45 -27.15 7.15 -32.2Q11.85 -37.3 19.55 -37.3Q26.3 -37.3 30.5 -33.3Q33 -30.95 34.25 -26.55L26.9 -24.8Q26.25 -27.65 24.15 -29.3Q22.1 -30.95 19.2 -30.95Q15.15 -30.95 12.6 -28Q10.1 -25.1 10.1 -18.55Q10.1 -11.6 12.55 -8.65Q15.05 -5.7 19.05 -5.7Q21.95 -5.7 24.05 -7.55Q26.2 -9.45 27.15 -13.5" />
</g>
<g id="PathID_24" transform="matrix(0.832063, 0, 0, 0.832063, 183.9, 193.15)" opacity="1">
</g>
<g id="PathID_25" transform="matrix(0.832063, 0, 0, 0.832063, 215.35, 193.15)" opacity="1">
<linearGradient
id="LinearGradID_4" gradientUnits="userSpaceOnUse" gradientTransform="matrix(-1.92518e-009, 0.044043, -0.0231771, -1.0131e-009, 0.65, -18.3)" spreadMethod ="pad" x1="-819.2" y1="0" x2="819.2" y2="0" >
<stop  offset="0" style="stop-color:#FFFFFF;stop-opacity:1" />
<stop  offset="0.498039" style="stop-color:#534741;stop-opacity:1" />
<stop  offset="0.501961" style="stop-color:#21150F;stop-opacity:1" />
<stop  offset="1" style="stop-color:#534741;stop-opacity:1" />
</linearGradient>
<path style="fill:url(#LinearGradID_4) " d="M20.8 -13.45L20.8 -19.65L36.75 -19.65L36.75 -5Q34.4 -2.75 29.95 -1.05Q25.55 0.65 21.05 0.65Q15.3 0.65 11 -1.75Q6.75 -4.15 4.6 -8.65Q2.45 -13.15 2.45 -18.45Q2.45 -24.15 4.85 -28.6Q7.25 -33.05 11.85 -35.45Q15.4 -37.3 20.65 -37.3Q27.45 -37.3 31.3 -34.4Q35.15 -31.55 36.25 -26.5L28.9 -25.1Q28.1 -27.8 25.95 -29.35Q23.85 -30.95 20.65 -30.95Q15.8 -30.95 12.95 -27.85Q10.1 -24.8 10.1 -18.75Q10.1 -12.2 12.95 -8.95Q15.85 -5.7 20.55 -5.7Q22.9 -5.7 25.2 -6.6Q27.55 -7.5 29.25 -8.8L29.25 -13.45L20.8 -13.45" />
</g>
<g id="PathID_26" transform="matrix(0.832063, 0, 0, 0.832063, 215.35, 193.15)" opacity="1">
</g>
<g id="PathID_27" transform="matrix(0.832063, 0, 0, 0.832063, 248.25, 193.25)" opacity="1">
<path style="fill:#770000;fill-opacity:1" d="M2.35 -11.8L6.95 -12.2Q7.25 -9.45 8.4 -7.65Q9.6 -5.9 12.1 -4.8Q14.6 -3.75 17.7 -3.75Q20.45 -3.75 22.55 -4.55Q24.65 -5.4 25.7 -6.8Q26.75 -8.25 26.75 -9.95Q26.75 -11.65 25.75 -12.9Q24.75 -14.2 22.45 -15.1Q21 -15.65 15.95 -16.85Q10.95 -18.1 8.95 -19.15Q6.3 -20.55 5 -22.6Q3.75 -24.65 3.75 -27.15Q3.75 -29.95 5.3 -32.35Q6.85 -34.75 9.85 -36Q12.9 -37.3 16.6 -37.3Q20.65 -37.3 23.75 -35.95Q26.85 -34.65 28.5 -32.1Q30.2 -29.55 30.35 -26.35L25.7 -26Q25.3 -29.4 23.15 -31.15Q21 -32.95 16.8 -32.95Q12.45 -32.95 10.45 -31.3Q8.45 -29.7 8.45 -27.45Q8.45 -25.45 9.85 -24.2Q11.25 -22.95 17.1 -21.6Q23 -20.25 25.2 -19.25Q28.4 -17.8 29.9 -15.5Q31.45 -13.25 31.45 -10.35Q31.45 -7.4 29.75 -4.8Q28.1 -2.25 24.95 -0.8Q21.85 0.6 17.9 0.6Q12.95 0.6 9.6 -0.85Q6.25 -2.3 4.35 -5.2Q2.45 -8.1 2.35 -11.8" />
</g>
<g id="PathID_28" transform="matrix(0.832063, 0, 0, 0.832063, 248.25, 193.25)" opacity="1">
</g>
<g id="PathID_29" transform="matrix(0.832063, 0, 0, 0.832063, 267.7, 193.25)" opacity="1">
<path style="fill:#770000;fill-opacity:1" d="M1.7 -13.25Q1.7 -20.65 5.8 -24.2Q9.2 -27.15 14.15 -27.15Q19.6 -27.15 23.1 -23.55Q26.6 -19.95 26.6 -13.65Q26.6 -8.5 25.05 -5.55Q23.5 -2.65 20.55 -1Q17.6 0.6 14.15 0.6Q8.55 0.6 5.1 -2.95Q1.7 -6.55 1.7 -13.25M6.35 -13.25Q6.35 -8.15 8.55 -5.6Q10.75 -3.1 14.15 -3.1Q17.5 -3.1 19.7 -5.6Q21.95 -8.15 21.95 -13.4Q21.95 -18.3 19.7 -20.85Q17.45 -23.4 14.15 -23.4Q10.75 -23.4 8.55 -20.85Q6.35 -18.35 6.35 -13.25" />
</g>
<g id="PathID_30" transform="matrix(0.832063, 0, 0, 0.832063, 267.7, 193.25)" opacity="1">
</g>
<g id="PathID_31" transform="matrix(0.832063, 0, 0, 0.832063, 293.85, 193.25)" opacity="1">
<path style="fill:#770000;fill-opacity:1" d="M4.45 0L4.45 -23.05L0.45 -23.05L0.45 -26.55L4.45 -26.55L4.45 -29.35Q4.45 -32 4.9 -33.3Q5.55 -35.05 7.2 -36.15Q8.85 -37.25 11.8 -37.25Q13.7 -37.25 16 -36.75L15.35 -32.85Q13.95 -33.1 12.7 -33.1Q10.65 -33.1 9.8 -32.2Q8.95 -31.35 8.95 -28.95L8.95 -26.55L14.1 -26.55L14.1 -23.05L8.95 -23.05L8.95 0L4.45 0" />
</g>
<g id="PathID_32" transform="matrix(0.832063, 0, 0, 0.832063, 293.85, 193.25)" opacity="1">
</g>
<g id="PathID_33" transform="matrix(0.832063, 0, 0, 0.832063, 305.4, 193.25)" opacity="1">
<path style="fill:#770000;fill-opacity:1" d="M13.2 -4L13.8 -0.05Q11.9 0.35 10.4 0.35Q7.95 0.35 6.6 -0.4Q5.25 -1.2 4.7 -2.45Q4.15 -3.7 4.15 -7.75L4.15 -23.05L0.8 -23.05L0.8 -26.55L4.15 -26.55L4.15 -33.1L8.65 -35.8L8.65 -26.55L13.2 -26.55L13.2 -23.05L8.65 -23.05L8.65 -7.5Q8.65 -5.6 8.85 -5.05Q9.1 -4.5 9.65 -4.15Q10.2 -3.85 11.2 -3.85Q11.95 -3.85 13.2 -4" />
</g>
<g id="PathID_34" transform="matrix(0.832063, 0, 0, 0.832063, 305.4, 193.25)" opacity="1">
</g>
<g id="PathID_35" transform="matrix(0.4049, 0, 0, 0.4049, 221.25, 124.05)" opacity="1">
<path style="fill:#000000;fill-opacity:1" d="M145.75 12.35Q145.75 14.6 145.1 15.15L145.35 16.05L145.1 16.9L144.55 16.75Q144.1 16.6 143.8 16.9Q142.05 17.55 141.8 17.9Q140.8 18.55 138.65 18.45L137.95 19.55L138.25 20.7Q138.25 21.3 137.15 22L136.4 22.9L136.25 23.55L135.65 24.1Q135 23.8 135.25 22.45Q134.9 21.45 135.1 21Q135.55 20.15 137.55 18.45Q139.1 17.2 138.65 16.6L137.4 17.75L136.8 17.45L136 17.35Q135.65 17.45 135.1 18.1Q134.55 18.9 134.15 18.9L133.15 18.7L131.15 19L130.2 19Q129.65 18.9 129.45 19.15Q129.35 19.55 127.75 20.6Q126.45 21.45 126.45 21.85Q126.35 22.45 127.5 22.45L127.9 22.15Q128.05 22 128.5 22.15Q129.45 22.45 128.75 25.25Q128.5 26.55 127.5 27.55L125.8 28.8Q125.45 29.1 124.9 28.8Q124.55 28.9 123.95 30.05Q123.4 30.25 123.4 30.5Q123.2 30.95 123.8 31.5Q124.35 32.2 123.95 32.9Q123.65 33.45 122.8 33.25Q122.35 33.25 122.5 32.1L121.95 30.8Q121.8 30.5 121.35 30.65L120.7 30.65Q120.55 30.5 120.55 29.95Q120.25 29.65 118.95 30.95Q118.85 31.1 119.1 31.4L119.7 31.8Q120.7 31.5 120.9 31.8L120.35 32.3Q119.7 32.65 119.8 32.9L120.35 34.05Q120.8 34.9 120.55 36.3L118.65 38.8Q116.6 40.05 115.6 39.9Q114.9 39.7 114.45 40.05Q113.55 40.6 114.9 42.45Q116 44.25 113.4 45.7Q113.15 45.7 113 44.85L112.4 44.4L111.5 43.4L110.9 45.15L111.15 45.7Q111.55 45.85 111.7 46.4L112.7 47.55L113 48.95Q112.7 49.25 112.4 48.8L111.7 48.1Q111.55 46.85 110.45 45.85Q110.35 45.4 110.7 44.25L110.1 42Q110.05 41.75 108.9 42.3Q108.75 42.2 108.9 41.6Q109 41.15 108.75 40.85L108.2 40.15Q107.85 40.05 107.45 39.15Q107.15 39 105.95 39.6Q104.8 40.45 102.95 42.3L102.5 44.55Q101.9 46.1 101.5 45.85L100.8 44L100.25 43.1L100.1 42.45L99.55 39.9Q99.4 39.7 98.65 40.05L97.4 38.45Q96.8 37.45 95.55 38L93.4 37.8L92.6 36.9L92.05 37.05Q91.6 37.35 91.15 36.75Q90.15 36.2 89.2 35.35Q88.75 35.95 89 36.2Q89.6 36.65 90 37.45L90.75 38.45Q91.15 38.8 91.7 38.2Q92.25 37.65 92.6 37.65Q92.6 38.2 92.85 38.45L93.55 38.8Q94.1 39.3 93.85 39.6L92.15 41.45L89.45 43Q87.6 44 87.15 43.7L86.7 42.55Q86.6 41.45 86.15 41.05Q85.5 40.3 84.8 38.3Q82.5 35.5 82.2 35.95L83.75 38.9Q84.05 39.3 84.05 40.05Q84.05 40.6 84.35 40.85L85.2 41.75L85.35 42.55L86.35 43.25L87.3 44.7Q87.75 45.15 88.9 44.4Q89.9 43.7 90.35 44.25Q90.75 44.95 90.15 45.55Q89.75 46.65 87.5 48.95Q85.35 51.2 85.05 52.1Q84.9 52.55 85.5 54.2Q85.8 55.75 85.5 56.5Q85.35 57.1 84.45 57.65Q83.5 58.3 83.3 58.75L83.3 59.9L83.5 60.85Q82.75 61.05 82.5 61.6L82.2 62.75Q82.2 63.55 81.5 64Q80.1 66 78.2 65.85Q77.8 66 77.3 66.45Q75.95 66.3 75.95 65.6L75.95 64.55Q75.25 63.55 75.25 63.1L74.4 60.85Q74.55 59.6 73.4 57.65Q73.2 56.35 74 54.9Q74 52.2 73.3 51.75Q72.3 51.2 72.4 49.35Q72.4 47.55 72.05 47.55Q71.45 47.8 70.7 47.2L69.9 46.55Q69.55 46.55 68.3 47.1Q67.05 47.65 66.75 47.45L66.05 47.55Q65.35 48.1 65.05 48L62.4 45.15L61.25 44Q60.95 43.25 61.4 40.85Q61.25 40.6 61.25 39.6Q61.05 39.15 62.4 37.05L63.65 35.75Q63.9 34.6 64.2 34.35L65.2 33.45L65.8 32.8L67.3 32.9L68.45 32.3L72.15 31.8Q72.75 31.8 73.3 32.3Q73.4 32.65 72.95 33.1Q72.6 33.45 72.75 33.45L74.7 34.2L76.5 35.35Q76.95 35.5 76.95 34.9Q76.95 34.2 77.05 34.2L79.25 34.45L80.8 35.2L82.6 35.05Q83.2 35.05 83.5 34.2L83.75 32.8L84.2 32.3L83.3 32.1L82.6 32.3L81.1 32.3L80.35 32.1Q80.1 31.8 79.55 29.95L78.65 30.25Q78.4 30.35 78.4 31.65Q78.1 32.3 77.8 32.2Q77.35 31.95 77.05 30.8L76.7 29.8L76.15 28.9L75 28.15Q74.4 28 74 27.4Q73.3 27.4 73.7 28L74.1 28.35L75.7 29.8Q76.25 29.95 76.25 30.35Q76.25 30.65 75.85 30.35L75.4 31.4L74.7 31.95L74.25 32.1Q74 32.2 74.1 31.65L75.15 30.65Q75.15 30.35 74.1 29.95Q73.3 29.65 72.95 28.8Q72.75 28 72.4 28Q72.05 27.75 71.05 28.65L69.9 28.55Q69.3 28.8 69.2 29.65Q68.85 29.65 68.3 30.95Q67.85 32.2 67.3 32.2Q66.35 32.1 65.8 32.55L65.2 31.95L64.35 31.95L64.05 30.95Q64.05 30.05 64.45 29.35Q64.35 28.65 64.65 28.35L67.65 28.55Q68.15 27.4 67.2 26.55Q66.2 25.7 66.35 25.5L67.65 25.25Q68.6 24.95 68.6 24.7L70.15 23.45L71.8 22.3Q71.6 21 71.8 20.6L72.4 19.85Q73.2 19.7 72.85 20.6Q72.4 21.55 72.85 22Q73.55 21.85 73.85 22L75.55 22L76.5 22.15L77.05 21.75Q77.35 21.75 77.5 21.55Q77.35 20.3 77.65 20.15Q78.4 20.6 78.5 20.4L78.65 19.85Q78.95 18.9 79.55 18.9Q80.5 18.9 80.7 18.55Q81.25 18.05 80.1 18.05L78.2 18.45Q77.65 18.1 77.35 17.2Q77.3 16.75 78.4 15.5Q79.25 14.45 78.4 14.15Q77.95 13.9 77.8 14.6L77.3 15.75Q76.15 16.3 75.95 17L76.25 18.05Q76.5 18.7 76.15 19Q75.95 19 75.25 20.3Q74.55 21.45 74.1 21.3Q73.85 21.3 73.4 19.85Q72.95 18.7 72.75 18.9Q71.45 20 71.15 19.85Q71.6 19.25 70.6 18.55Q69.75 18.05 71.15 16.6L72.85 15.15Q73.7 13.8 74.1 13.45Q75.55 11.75 76.85 11.4L81.4 11.2L83.05 11.5Q86.35 12.35 86.05 13Q85.9 14 84.65 14L82.75 13.45Q82.05 13.25 82.75 14Q83.5 15.15 83.75 15.15L84.2 14.6Q84.8 15.05 85.35 14.9L86.35 14.35L86.5 13.9L87.15 13.9Q87.5 13.9 87.15 13Q87.05 12.2 87.85 12.1Q88.45 12.2 88.05 12.9Q87.75 13.45 88.6 13.35Q89.3 12.5 90 12.35L91.6 12.2L93.3 11.75Q93.85 12.1 94.1 11.95L94.55 11.05Q95.45 11.05 96.35 11.75L97.7 12.1Q97.95 12.1 97.4 11.05Q96.8 10.05 97.15 9.9L97.95 8.9Q98.55 8.1 99.55 8.7Q99.8 8.8 99.55 9.15L99.4 9.7L99.55 11.2Q100 12.1 99.8 12.5Q99.55 13.25 98.85 13.45L98.1 13.6Q98.25 14 98.95 14Q99.8 13.9 100 13.25L100.55 12.1L100.1 10.35Q100.4 8.7 100.8 8.7Q100.4 9.7 100.9 9.9L101.9 10.25Q102.05 9.9 101.85 9.8L101.5 9.5Q101.35 9.25 101.85 9.15Q102.05 8.9 102.5 9.15L103.35 9.9Q103.9 10.65 104.2 10.5Q104.35 10.05 103.35 8.8Q102.6 7.8 103.65 8Q104.65 8 106 7.4L105.6 6.65L109.2 5.4L110.7 5.5L111.55 5.25L112.85 4.15L114.45 5.25L116 5.1Q117.5 5.4 116.95 6.25L115 7.4Q113.3 8.35 113.85 8.35L115 8.25Q116 7.65 116.35 7.65Q116.7 8 117.25 8L117.95 7.8L120 8.55L123.05 8Q123.5 8.1 123.05 8.55Q122.65 8.9 122.95 8.9L123.95 9.7L124.55 10.35Q124.65 9.9 126 9.7L127.75 9.5L128.9 8.35L130.85 9.35L133.75 10.35L136 10.05Q136.95 10.35 136.95 11.2Q136.95 11.4 137.4 11.4L139.4 11.4L140.55 11.5L141.25 11.95Q141.65 11.95 141.5 11.05L142.65 10.95L144.75 11.05Q145.75 11.2 145.75 12.35M130.35 27.75Q131 28.2 130.85 28.65L130 29.5Q129.2 28.9 129.2 29.25L129.35 30.05Q129.65 30.65 129.45 30.8Q129.05 31.1 129.05 32.1Q128.9 33.1 128.6 33.25L127.75 33.45Q127.35 33.45 126.75 33.9Q126.6 34.05 126.35 33.75Q125.9 33.7 125.45 34.05Q125.1 34.35 124.55 33.35Q124.35 33.25 124.9 32.9Q125.35 32.65 125.65 32.65L126.45 32.55L127.75 31.8L128.3 30.25L128.3 29.25Q128.3 28.8 128.75 28.35L128.9 27.7Q129.05 27.25 129.35 27.25Q129.75 27.25 130.35 27.75M122.65 46.3Q122.65 46.55 121.95 46.55Q120.7 47 120.7 46.3L121.35 45.7Q122.05 45.25 122.35 45.25Q122.65 45.25 122.65 46.3M97.15 5.8Q96.3 6.4 95.25 6.4Q94.55 6.4 92.95 7.4Q91.85 8.25 91.85 7.8Q91.85 6.95 92.7 6.25Q93.7 5.4 94.85 5.4L96.8 4.8Q97.8 4.6 97.8 4.95L97.15 5.8M92.15 9.25L92.6 9.9Q92.7 10.25 92.05 10.35Q91.05 10.35 91.15 9.35Q91.15 8.25 91.7 8.25Q92.15 8.25 92.15 9.25M102.6 46.1Q102.6 45.4 103.05 45.4Q103.5 45.4 103.5 46.4L103.05 46.85Q102.6 46.85 102.6 46.1M115.65 49.1Q115.65 48.1 116.8 48.1Q117.95 47.2 118.1 47.8Q118.1 49.1 117.1 49.1L116.25 49.25L115.65 49.1M118.55 55.5Q117.25 55.5 116.35 53.65Q113 50.4 114.45 50.4Q115.15 50.4 116 51.1L117.95 52.9Q120.1 55.5 118.55 55.5M120.8 54.2L120.1 52.65Q120.1 52.3 121.2 52.3L122.05 52.2Q122.65 52.2 122.95 51.4Q123.05 50.65 123.65 51.1L124.2 52.75Q123.65 53.45 123.65 53.8Q123.2 54.9 122.65 54.9L121.35 54.35L120.8 54.2M87.75 61.6Q86.7 61.6 87.05 60.05L87.5 58.75Q87.05 57.75 87.6 57.3L88.45 56.65Q89.3 55.5 89.45 55.5Q89.9 55.5 89.75 56.35L89.45 58.45Q89.45 59.6 88.9 60.6Q88.15 61.6 87.75 61.6M148.2 71.1Q147.35 69.25 147.6 69.25L149.35 71.1Q150 70.95 150 71.4L149.65 72Q149.35 72.9 148.65 72.9Q148.2 72.9 148.2 71.1M147.75 73.8L146.9 74.6Q146.6 75.75 145.9 75.95Q145.2 76.15 144.9 75.65Q144.65 74.8 146.2 74.05L147.35 72.9Q147.75 72.5 148.05 73.2Q148.2 73.5 147.75 73.8M132 59.9Q132.85 61.3 133.75 60.85L134.3 59Q134.3 57.9 134.65 58Q135.55 58.45 136.1 60.3L137.55 62.85Q139.4 64.7 139.4 66.45L138.25 69.25Q137.25 72.05 134.45 71.55Q133.85 71.55 131.9 69.7Q130 67.85 129.35 67.85Q128.5 67.85 126.45 69L123.8 69.95Q122.95 69.95 122.8 69.25L122.8 68.25L122.35 67.55Q122.05 67.1 122.05 66.5L121.8 64.7Q121.65 63.7 122.25 63.1Q122.95 62.4 124.9 61.85Q125.35 61.75 126 60.6Q126.75 59.6 127.5 59.6Q128.5 59.9 129.05 58.9Q129.45 57.9 129.75 57.9Q131.45 57.9 132.15 58.45Q131.7 59.45 132 59.9M134.3 57.3L133.3 56.75L132.45 55.65L131.35 55.05L129.75 53.35L131.45 53.45Q133.55 54.5 134.45 54.5Q135.8 54.5 136.95 55.65Q137.95 56.75 137.95 57.65Q137.95 58 137.4 57.65L135.65 56.5Q135.1 56.35 134.3 57.3M124.8 55.35Q124.55 55.35 124.65 54.6L124.8 53.45Q124.8 52.3 126.6 52.3Q125.9 52.9 125.9 53.8L125.45 54.9L124.8 55.35M135.8 72.75Q136.95 72.75 136.95 73.35Q136.95 74.25 136.1 74.25Q135.65 74.25 135.65 73.5Q135.65 72.75 135.8 72.75M76.4 3.8L75.55 4.95L74.55 4L73.7 3.6L72.85 2.3Q72.85 1.85 73.7 2L75.15 2.45L76.5 2.45Q77.05 2.45 77.05 3Q76.7 3.15 76.4 3.8M61.65 15.6Q60.8 16.2 60.35 15.85L58.45 14.45L59.55 14.35L61.4 14Q62.5 14 62.5 14.9Q62.5 15.3 61.65 15.6M64.2 22.9L64.9 21.55Q65.6 21.55 65.6 22.3Q65.8 23.1 65.2 23.65L64.9 24.05Q63.75 24.4 63.75 23.25L64.2 22.9M66.5 19.45Q67.5 19.45 67.5 21.85Q67.5 22.15 67.85 22.3L68.3 22.65L68.75 23.45Q68.85 24.05 68.15 24.25L67.3 24.4Q66.35 25.15 66.2 24.7Q65.9 24.4 67.05 22.65L67.05 21.85L65.8 20.85Q65.6 20.4 65.9 20L66.5 19.45M58 5.25L58.65 5.5Q58.95 6.65 58.05 6.85Q57.4 6.95 57.4 7.1Q57.4 7.55 58.05 7.8L59.55 8Q60.35 8.1 60.35 8.8Q60.35 9.9 59.2 11.05Q58.8 11.5 57.4 11.75L56.95 13Q56.85 13.9 55.95 14Q55 14.35 54.4 15.3L54 17.2L53.65 17.75Q54 17.9 53.85 18.35L53.55 19.7Q53.1 20.4 52.75 20Q52 19.25 51.85 19.25Q51.3 19.25 50.7 19.55Q50.25 19.55 49 17.75L47.4 15.3Q47.3 14.9 48.2 13.6Q48.8 12.9 48.8 12.2L48 10.65Q47.85 10.5 47.65 10.8L47.05 10.95Q46.75 10.5 46.9 9.35Q46.9 8.35 46.3 7.8Q45.9 6.95 45.15 6.85Q44.9 6.65 44.2 6.85Q43.55 6.95 43.3 6.65Q42.65 5.7 43.1 4.7L44.9 4.15L46.2 2.85Q46.75 2 47.3 1.85L49.45 1.4Q50.15 0 51 0Q52.95 -0.15 52.85 0.6Q52.45 1.3 52.75 1.3L53.3 0.7Q53.3 1.4 53.55 1.3L54.1 0.6Q54.4 0.15 54.7 0.25Q55 0.4 55 0.85L54.8 1.7L55.25 2.3L55.85 3.45L56.85 4.6Q57.3 5.25 58 5.25M43.65 2Q44.9 2.1 44.9 2.55Q44.9 2.85 44.2 2.85L43.2 2.85L43.3 3.45Q43.55 3.8 42.1 4.6Q41.8 4.7 41.35 5.25Q40.1 5.25 39.9 5.5Q39.65 5.7 39.5 6.4Q37.55 7.25 37.25 7.8Q37.1 8.1 38.4 8.55L37.25 8.8L36.15 8.7Q33.65 8.7 33.65 8.25Q33.9 7.8 36.15 7.65Q34.55 7.1 34.8 6.85Q35 6.4 35.95 6.4Q36.7 6.4 36.4 6.1L35.7 5.7Q35 5.4 35.1 5.1Q35.1 4.7 35.95 5.1L36.85 5.25Q36.85 4.95 38.55 4.25Q38.55 4 37.65 4L36.15 4.25L35.25 3.6L33.9 3.8L33.1 3.45L33 3Q33.3 2.85 33.55 3.15L34.25 3.25L37.25 3Q37.65 2.85 37.4 2.7Q37.1 2.3 37.25 2.3L40.5 1.85L43.65 2M42.5 14Q43.1 14.15 43.1 14.35L42.95 14.9Q42.65 15.5 43.1 15.75Q44.2 15.75 44.6 16.6Q45.15 16.6 45.35 17Q45.35 18.1 44.45 17.9Q44.2 17.9 43.3 17Q42.8 17 42.8 17.45Q44.3 18.7 44 19.55Q42.8 18.9 42.65 19.15L43.2 19.85Q43.75 20.4 43.1 20.3Q42.5 20.3 41.8 19.55L40.5 18.55L39.5 18.55L38.65 18.45Q38.65 18.1 39.2 18.1L40.1 17.75L40.95 16.3Q40.8 15.6 39.9 14.9Q39.1 14.35 38.65 14.35L35.7 14.15Q35 14.15 34.25 13.45Q33.55 13.25 33.55 12.35L34 11.5Q34.55 11.05 34.8 11.2L35 12.2Q34.8 13 35.4 13.35L35.4 12.35Q35.25 11.2 36.15 11.2L37.1 11.4Q36.85 12.5 37.4 12.5L39.1 12.1L39.9 12.65Q40.25 13 40.65 13Q41.35 13 41.8 13.45Q41.95 13.8 42.5 14M41.5 21.15Q42.2 21.15 41.95 22.15Q41.65 23 42.95 23Q43.3 23.1 43.75 22.45Q44.2 21.75 44.3 21.85Q45.15 22.55 45.35 23.45L45.35 24.1Q47.2 25.15 47.75 25.95Q48 26.4 47.75 26.85L47.3 27.1L46.6 27.55L45.35 27.75Q43.2 27.75 43.1 28.35Q41.8 28.9 41.8 29.5Q42.65 28.8 43.2 28.65Q44.6 28.35 44.2 28.9Q43.65 28.9 43.65 29.25L44 29.5Q43.9 30.05 44.6 30.35Q45.75 30.5 45.6 30.8Q45.35 31.2 44.75 31.2L43.75 31.65Q43.3 31.4 44.2 30.8Q44.2 30.05 43.75 30.5L43.2 31.1L41.95 31.5Q41.35 31.8 41.65 32.8L40.65 32.9Q40.35 33.1 40.1 33.7L39.65 34.2Q39.1 34.35 39.2 35.2L39.2 36.2L37.4 37.65Q36.85 38.2 37.1 39L37.55 40.45Q37.65 41.05 37.4 41.15L37.25 41.15Q36.5 40.75 36.5 40.05Q36.5 39.3 36.15 39Q35.95 38.8 34.45 38.55Q33.9 38.3 33.3 39.3L31 39.45Q30.15 39.7 30 41.05Q29.7 42.2 30.15 43.25Q30.45 44.1 31.4 44.4Q32.55 44.95 33 44.1L33.55 43.1L34.45 43.1Q34.65 43.25 34 44.85Q33.55 46.1 34.8 45.85Q35.8 45.55 35.95 46.1Q35.7 47.65 36.15 48.35Q36.7 49.1 37.65 48.65L38.2 48.65Q38.65 48.65 39 49.35L38.75 50.4Q38.65 50.65 39.2 50.8L39.35 50.25Q39.35 49.7 39.9 49.7L40.35 49.95Q40.35 50.25 40.65 50.25L41.8 50.4Q42.5 49.8 43.2 50.05Q43.55 50.05 43.55 50.5L43.65 51.1Q44.2 51.1 44.3 51.4L45.45 52.3Q47.2 52.55 47.75 53.05L48.3 54.2Q48.55 54.35 47.85 54.8L47.4 55.35L47.85 55.5Q48.4 54.9 49 55.05L49.7 55.35Q50.6 56.35 50.85 56.2Q51.85 55.95 52.85 56.5L54 57.45Q54.55 57.45 54.55 57.65Q54.8 58.6 54.1 59.75L53.1 61.2L52.75 64.15L51.85 65.4L51.3 65.6L49.9 65.7Q48.8 66.45 48.85 66.75Q49.15 67.95 48.4 68.65L47.65 69.4L46.3 71.4Q46.05 71.65 45.35 71.4Q44.75 71.25 44.6 71.4L45.05 72.05Q45.35 72.75 44.9 73.2L43.75 73.5L43.1 73.65Q43.3 74.35 42.8 74.6Q42.65 74.8 42.4 74.6Q42.1 74.5 41.8 74.8L41.95 75.65Q41.95 76.5 41.5 76.75L40.8 77.2Q40.5 77.6 40.95 77.9Q41.35 78.2 41.35 78.45L41.05 78.9L40.5 79.75Q39.9 80.05 39.9 80.3Q40.1 81.4 39 81.4Q38.1 81.4 38 80.05L38.1 78.2L38.65 76.85Q39 76.1 38.65 75.2L38.2 74.8Q38.4 73.8 38.2 72.65L39.1 70.7L39.1 69.8L39.65 64.45Q39.65 63.55 38.75 62.75L37.25 61.6L35.7 58.6L34.65 57.2Q34.55 56.5 35.4 56.35L35.1 56.05Q34.8 55.75 35.1 55.2L36.4 53.45Q36.7 52.65 36.4 51.65L37.4 50.5Q38.4 49.5 38.2 49.25Q38.2 48.95 37.85 48.95Q37.55 48.95 37.4 49.7Q36.95 49.1 35.95 48.8Q35.1 48.35 34.65 47.2Q34.55 47 32.75 46.55L31.4 45.7L30.45 45.7Q29.7 45.7 29.35 45.25L28.2 44.7Q27.2 44.4 26.85 44Q26.6 43.7 26.6 43.1L26.15 42.2L24 39.7Q23.45 39.15 23.45 38.45L23.1 37.85Q22.5 37.85 22.65 38.8Q23.9 40.45 24 41.05Q24.25 41.75 24 41.6L23.65 40.6Q23.35 40.15 22.8 40.3Q22.65 40.05 22.9 39.6L21.35 37.2L20.05 36.5L19.45 35.35Q18.55 33.7 18.55 32.2L18.7 30.8Q18.9 29.65 18.25 28.9L16.85 27.75Q16.4 27.4 17.1 27.25Q16.65 25.85 15.8 25.7Q15.5 25.7 14.95 26.1Q14.65 25.5 14.65 23.55L13.7 22.65L13.15 22.65L12.15 22L10.15 21.75Q9.45 21.55 8.6 21Q8 20.85 8.2 21.75L7.75 21.75Q7.2 22.55 7.05 22.15Q6.75 21.85 7.2 21.45L7.45 20.85L6.45 21.55L5.9 22.15Q5.7 22.3 5.7 22.9L4.6 23.65L3.8 24.4L3.2 24.4Q3.1 24.25 3.8 23.65Q4.6 23 4.35 22.65L3.45 22.55L2.5 22.55L2.35 21.75L1.5 21.85L0.9 21.15L0.6 20.7Q0.6 20.15 1.35 19.45L2.75 19.15L2.9 18.45L2.05 18.55L1.2 18.55L0.5 18.45L0.5 17.9Q-0.1 17.55 0.05 17.45L1.2 17L1.95 17.35L3.2 17.2L1.6 16.45Q0.05 15.6 0.5 15.15L1.5 14.9L2.35 13.9L3.1 13.9L3.35 13.45L4 13.45L4.8 13L5.35 13.45L5.7 13.35L6.45 13.6L6.85 13.9Q8.3 13.35 11.15 14.45Q13.15 15.3 13.55 15.15Q15.25 14.15 16.1 13.9Q16.1 14.35 16.4 14.35L16.95 13.6Q17.4 13.6 17.65 14.35Q17.95 15.05 18.7 14.75Q19.45 14.15 20.5 14.75L21.35 15.15L22.65 15.3Q23.1 15.5 22.65 15.75Q22.2 15.85 22.9 16.2L24.9 16.05Q25.45 16.2 25.45 16.45Q25.45 16.9 25.75 16.9L26.05 16.6L25.9 16.05Q26.15 15.5 27.05 15.85L28.2 16.2L30 16.2Q30.15 15.85 30.45 15.85Q30.6 16.6 30.85 16.6Q31.15 16.6 31.15 16.05L31.6 15.5Q32.15 15.15 32 14.9Q32 14.45 30.85 14.35L30.6 13.6Q30.6 13 30.85 13.25L31.3 12.8L32 13L32.45 14L32.3 14.45L32.75 14.6Q33.1 14.75 33.3 15.5L33.65 15.15Q33.9 14.9 34.1 15.15L34 15.85Q34 16.3 34.55 16.6Q34.8 16.75 35.4 15.6Q35.95 14.45 36.25 14.75Q36.7 14.75 36.85 15.05L36.7 15.3L36.4 15.6L36.85 16.75Q36.5 17.35 35.7 17L35 16.9L34.8 17.45L34.45 17.75L33.1 17.45L33.9 18.05Q34.45 18.45 34.1 18.7L33.3 19.15L32.15 19L32.85 19.45Q31.4 21.15 31.3 21.75Q31.15 22.45 31.4 22.55L32 22.65Q32 23.55 32.55 23.65L33.65 23.8Q34.25 24.55 35.1 24.7L36.4 24.95L36.85 25.5L36.7 26.1Q37.25 27.25 37.65 27.25Q38.55 27.55 38.1 25.85L38.1 25.25L38.65 24.8Q39.1 24.4 39.2 23.8L38.55 22.55L38.75 21.85L38.55 21Q38.4 19.85 38.65 20L39.35 20.3Q40.1 20 40.5 20.3Q40.95 21 41.5 21.15M46.75 29.1L47.2 28.35Q47.4 27.25 47.85 27.25Q47.75 28 48 28.2L49 28.9L49.15 29.8Q49.15 30.35 47.85 29.35Q46.75 29.35 46.75 29.1M41.5 43.8Q42.2 43.8 42.2 44.1Q41.8 44.1 41.5 44.4L40.95 44.7L40.65 44.4Q40.65 43.7 41.5 43.8M31.15 5.4Q31.15 3.8 32.15 3.8L33.45 4.7L34.65 5.7Q34.65 5.95 33.9 6.25L32.85 6.85Q32.55 6.85 32 5.95L31.15 5.4M32.55 9.35L32.55 8.55L33.65 9.35L35 9.5L36.4 9.25Q37.65 9.25 37.65 9.8Q37.65 10.35 36.95 10.35L36.25 9.9L35.25 10.25L33.9 10.05L33.1 10.25L32.45 9.8L32.55 9.35M24.9 8.25L25.75 9.25Q26.5 8.9 26.3 9.7L25 9.8L24 10.35Q23.2 10.65 23.2 10.35L24.25 9.7L25 9.25Q24.75 8.25 24.9 8.25M21.05 8.35Q20.6 8.35 20.35 8.9L19.35 8.8L19.9 8.25L20.8 7.8L22.05 7.8Q22.05 8.55 21.65 8.55L21.05 8.35M22.05 11.2L21.5 11.65L20.5 12.35Q20.2 12.5 20.2 12.9Q19.9 13.35 19.25 13.35Q18.9 13.35 18.35 12.8L18.1 11.95Q18.1 11.65 18.55 11.4Q18.35 10.65 18.55 10.5L19.35 10.5L20.8 10.8Q22.05 10.65 22.05 11.2M25.15 12.1Q25.35 12.8 25.6 12.8Q25.9 12.8 25.9 12.1Q25.75 11.5 25.9 11.5L27.05 12.5L27.3 13.8L28 14Q28.55 14 28.55 14.45Q27.75 14.15 27.75 14.75L27.9 15.05L27.75 15.15L25.9 14.9L24.25 15.3L23.45 15.3L23.2 14.75L22.35 14.75L21.65 14.35L22.9 14.15Q24 14.15 23.9 13.9L22.9 13.8Q22.05 13.6 22.05 13.25Q22.05 12.9 21.05 12.9Q20.8 12.2 21.75 11.75L24.3 12.35Q24.75 11.75 25.15 12.1M30.15 9.15L29.35 9.8L28.9 9.35Q28.2 9.35 28.2 9.15Q28.2 8.9 29.45 8.55Q30.15 8.55 30.15 9.15M30 11.75L30.45 12.2Q30.45 13 29.55 13L28.9 12.5L28 11.95L28.9 11.75Q28.55 10.95 29.35 11.05Q29.55 10.95 29.7 11.2L30 11.75M35.4 17.9L36.25 18.35Q37.25 18.55 37.25 19.15Q37.25 19.45 36.4 18.9L35.4 19.25L35.1 18.55Q35.1 18.05 35.4 17.9M36.85 42.3L37.4 42.3Q38.1 42.3 38.1 43L37.4 42.9Q36.85 42.9 36.85 42.3M39 43.25Q39.5 43.25 39.5 43.8L38.75 43.55Q38.4 43.4 38.4 43Q38.55 43.25 39 43.25" />
</g>
<g id="PathID_36" transform="matrix(0.4049, 0, 0, 0.4049, 221.25, 124.05)" opacity="1">
</g>
</svg>
