<?xml version="1.0" standalone="no"?>
<!DOCTYPE svg PUBLIC "-//W3C//DTD SVG 20010904//EN"
 "http://www.w3.org/TR/2001/REC-SVG-20010904/DTD/svg10.dtd">
<svg version="1.0" xmlns="http://www.w3.org/2000/svg"
 width="149.000000pt" height="148.000000pt" viewBox="0 0 149.000000 148.000000"
 preserveAspectRatio="xMidYMid meet">

<g transform="translate(0.000000,148.000000) scale(0.100000,-0.100000)"
fill="#000000" stroke="none">
<path d="M555 1454 c-81 -20 -211 -84 -260 -129 l-40 -36 60 40 c68 44 155 82
235 102 68 17 287 17 350 0 261 -70 460 -264 531 -516 29 -103 32 -287 5 -384
-24 -89 -81 -200 -139 -273 -27 -35 -38 -52 -22 -38 37 34 106 133 139 198 70
139 90 351 47 506 -37 134 -93 228 -196 331 -99 99 -166 143 -277 183 -64 23
-91 26 -223 29 -108 2 -167 -2 -210 -13z"/>
<path d="M656 1271 c-3 -5 -15 -7 -26 -4 -12 3 -20 0 -20 -6 0 -7 -5 -9 -12
-5 -7 4 -8 3 -4 -5 6 -9 11 -9 22 0 18 15 44 -4 44 -32 0 -26 14 -24 30 6 11
20 11 27 0 40 -14 17 -26 19 -34 6z"/>
<path d="M867 1243 c-15 -8 -46 -15 -69 -16 -25 -1 -43 -7 -46 -16 -3 -10 0
-12 12 -8 9 4 16 2 16 -3 0 -9 -22 -14 -42 -11 -5 0 -9 -6 -9 -14 -3 -28 -4
-33 -11 -41 -15 -15 -7 -35 17 -44 16 -6 25 -17 25 -32 0 -13 4 -29 9 -36 9
-15 19 -5 43 44 13 28 13 32 -1 42 -13 8 -11 9 8 5 17 -4 22 -3 17 5 -10 17
10 15 28 -3 10 -10 17 -12 21 -5 5 8 11 7 21 -1 8 -6 16 -10 17 -8 2 2 14 20
28 39 14 19 28 43 32 53 3 9 14 17 22 17 9 0 13 -5 10 -11 -4 -6 2 -5 14 3 30
18 26 26 -16 33 -21 3 -52 10 -69 15 -37 12 -42 12 -77 -7z m-82 -93 l20 -9
-20 0 c-11 0 -27 4 -35 9 -13 9 -13 10 0 9 8 0 24 -4 35 -9z"/>
<path d="M546 1228 c5 -8 -5 -9 -34 -5 -37 4 -42 3 -42 -14 0 -14 7 -19 25
-19 19 0 29 -9 42 -36 10 -21 29 -44 43 -53 24 -15 24 -15 11 2 -12 15 -11 17
2 17 21 0 60 51 48 63 -5 5 -7 16 -4 23 7 18 -25 30 -40 15 -13 -13 -41 -15
-33 -2 3 5 -1 12 -10 15 -10 4 -13 2 -8 -6z m80 -24 c-3 -9 -6 -20 -6 -26 0
-7 -5 -6 -14 2 -18 14 -10 40 11 40 10 0 13 -6 9 -16z"/>
<path d="M189 1123 c-39 -45 -102 -177 -119 -252 -7 -30 -13 -102 -12 -160 0
-192 58 -329 196 -467 140 -140 276 -196 471 -196 90 0 124 5 190 26 94 30
181 79 250 142 l50 46 -60 -45 c-143 -106 -245 -141 -410 -141 -72 1 -132 7
-174 18 -217 59 -394 231 -463 451 -18 57 -22 93 -22 195 1 110 4 135 30 210
15 47 47 113 70 147 23 35 41 63 39 63 -2 0 -18 -17 -36 -37z"/>
<path d="M614 1043 c3 -21 6 -48 6 -61 0 -21 2 -20 30 11 36 41 36 44 8 68
-38 30 -52 25 -44 -18z"/>
<path d="M964 1025 c-8 -19 -7 -20 29 -29 26 -6 28 -4 25 16 -4 28 -45 38 -54
13z"/>
<path d="M782 880 c-40 -37 -30 -74 38 -139 63 -61 72 -87 42 -114 -26 -24
-57 -21 -80 7 -13 17 -23 22 -33 15 -11 -7 -8 -15 19 -39 41 -38 83 -40 117
-5 44 44 30 98 -41 155 -47 38 -63 72 -44 95 17 21 46 19 68 -5 16 -18 21 -19
31 -6 9 11 6 18 -15 35 -34 27 -74 27 -102 1z"/>
<path d="M1236 878 c-3 -13 -6 -33 -6 -45 0 -14 -6 -23 -15 -23 -8 0 -15 -4
-15 -10 0 -5 7 -10 15 -10 12 0 15 -18 15 -100 0 -82 3 -100 15 -100 12 0 15
18 15 100 l0 100 25 0 c31 0 33 17 3 22 -18 2 -23 10 -23 33 0 25 4 30 23 29
12 0 22 5 22 13 0 8 -12 13 -34 13 -26 0 -35 -5 -40 -22z"/>
<path d="M1360 855 c0 -38 -3 -45 -20 -45 -11 0 -20 -4 -20 -10 0 -5 9 -10 20
-10 19 0 20 -7 20 -100 0 -82 3 -100 15 -100 12 0 15 18 15 100 l0 100 25 0
c14 0 25 5 25 10 0 6 -11 10 -25 10 -23 0 -25 4 -25 45 0 33 -4 45 -15 45 -11
0 -15 -12 -15 -45z"/>
<path d="M1012 803 c-83 -41 -82 -167 2 -207 42 -20 59 -20 100 -1 92 44 85
188 -11 214 -49 14 -52 14 -91 -6z m99 -26 c34 -26 48 -81 33 -122 -10 -26
-62 -48 -100 -40 -41 7 -64 38 -64 86 0 67 81 115 131 76z"/>
<path d="M116 784 c-3 -9 -6 -31 -6 -51 0 -117 133 -184 248 -125 47 25 50 32
24 55 -16 15 -20 15 -47 -3 -45 -30 -100 -26 -136 9 -24 25 -29 37 -29 80 0
47 -2 51 -24 51 -13 0 -27 -7 -30 -16z"/>
<path d="M437 793 c-14 -13 -6 -99 11 -133 37 -68 159 -98 219 -54 38 28 62
64 69 102 l7 32 -77 0 c-74 0 -76 -1 -76 -25 0 -22 4 -25 40 -25 22 0 40 -4
40 -9 0 -19 -45 -41 -85 -41 -61 0 -98 42 -99 110 -1 44 -4 50 -22 50 -11 0
-24 -3 -27 -7z"/>
</g>
</svg>
